{
  "title": "Cinderella 2015 HDCAM.RIP.XVID-FANTA",
  "uid": 11760639,
  "size": 1567787905,
  "categoryP": "video",
  "categoryS": "movies",
  "magnet": "?xt=urn:btih:12d598aae862a2c80af36d2d6be57d581afe6cde&amp;dn=Cinderella+2015+HDCAM.RIP.XVID-FANTA&amp;tr=udp%3A%2F%2Ftracker.openbittorrent.com%3A80&amp;tr=udp%3A%2F%2Fopen.demonii.com%3A1337&amp;tr=udp%3A%2F%2Ftracker.coppersurfer.tk%3A6969&amp;tr=udp%3A%2F%2Fexodus.desync.com%3A6969",
  "seeders": 40,
  "leechers": 12,
  "uploader": "xxxlavalxxx",
  "files": 9,
  "time": 1426573741,
  "description": "[img]http://extraimago.com/images/2015/03/16/hEMKQSHq.jpg[/img]\n &lt;a href=&quot;\nhttp://www.imdb.com/title/tt1661199/&quot; rel=&quot;nofollow&quot; target=&quot;_NEW&quot;&gt;\nhttp://www.imdb.com/title/tt1661199/&lt;/a&gt;\n\n\nWhen her father unexpectedly passes away, young Ella finds herself at the mercy of her cruel stepmother and her daughters. Never one to give up hope, Ella's fortunes begin to change after meeting a dashing stranger.\n\nDirector: Kenneth Branagh\nWriter: Chris Weitz (screenplay)\nStars: Lily James, Cate Blanchett, Richard Madden\nGenres: Drama | Family | Fantasy | Romance\nCountry: USA\nLanguage: English\n\n\nFormat                                   : AVI\nFormat/Info                              : Audio Video Interleave\nFormat profile                           : OpenDML\nFormat settings                          : rec\nFile size                                : 1.44 GiB\nDuration                                 : 1h 38mn\nOverall bit rate                         : 2 086 Kbps\nWriting application                      : AVI-Mux GUI 1.17.8.3, Feb 16 201019:42:50\n\nVideo\nID                                       : 0\nFormat                                   : MPEG-4 Visual\nFormat profile                           : Advanced Simple@L5\nFormat settings, BVOP                    : 2\nFormat settings, QPel                    : No\nFormat settings, GMC                     : No warppoints\nFormat settings, Matrix                  : Default (H.263)\nMuxing mode                              : Packed bitstream\nCodec ID                                 : XVID\nCodec ID/Hint                            : XviD\nDuration                                 : 1h 38mn\nBit rate                                 : 1 889 Kbps\nWidth                                    : 640 pixels\nHeight                                   : 324 pixels\nDisplay aspect ratio                     : 1.975\nFrame rate                               : 25.000 fps\nColor space                              : YUV\nChroma subsampling                       : 4:2:0\nBit depth                                : 8 bits\nScan type                                : Progressive\nCompression mode                         : Lossy\nBits/(Pixel*Frame)                       : 0.364\nStream size                              : 1.30 GiB (91%)\nWriting library                          : XviD 64\n\nAudio\nID                                       : 1\nFormat                                   : AC-3\nFormat/Info                              : Audio Coding 3\nMode extension                           : CM (complete main)\nFormat settings, Endianness              : Big\nCodec ID                                 : 2000\nDuration                                 : 1h 38mn\nBit rate mode                            : Constant\nBit rate                                 : 192 Kbps\nChannel(s)                               : 2 channels\nChannel positions                        : Front: L R\nSampling rate                            : 48.0 KHz\nBit depth                                : 16 bits\nCompression mode                         : Lossy\nStream size                              : 135 MiB (9%)\nAlignment                                : Aligned on interleaves\nInterleave, duration                     : 64 ms (1.60 video frames)\nInterleave, preload duration             : 192 ms\nTitle                                    : Cinderella 2015 NEW AUDIO\n\n &lt;a href=&quot;\nhttp://extraimago.com/images/2015/03/17/Cinderella2015HDCAM.RIP.XVID-FANTA.avi_20150317_071142.073.jpg&quot; rel=&quot;nofollow&quot; target=&quot;_NEW&quot;&gt;\nhttp://extraimago.com/images/2015/03/17/Cinderella2015HDCAM.RIP.XVID-FANTA.avi_20150317_071142.073.jpg&lt;/a&gt; &lt;a href=&quot;\nhttp://extraimago.com/images/2015/03/17/Cinderella2015HDCAM.RIP.XVID-FANTA.avi_20150317_071204.772.jpg&quot; rel=&quot;nofollow&quot; target=&quot;_NEW&quot;&gt;\nhttp://extraimago.com/images/2015/03/17/Cinderella2015HDCAM.RIP.XVID-FANTA.avi_20150317_071204.772.jpg&lt;/a&gt; &lt;a href=&quot;\nhttp://extraimago.com/images/2015/03/17/Cinderella2015HDCAM.RIP.XVID-FANTA.avi_20150317_071233.898.jpg&quot; rel=&quot;nofollow&quot; target=&quot;_NEW&quot;&gt;\nhttp://extraimago.com/images/2015/03/17/Cinderella2015HDCAM.RIP.XVID-FANTA.avi_20150317_071233.898.jpg&lt;/a&gt; &lt;a href=&quot;\nhttp://extraimago.com/images/2015/03/17/Cinderella2015HDCAM.RIP.XVID-FANTA.avi_20150317_071339.949.jpg&quot; rel=&quot;nofollow&quot; target=&quot;_NEW&quot;&gt;\nhttp://extraimago.com/images/2015/03/17/Cinderella2015HDCAM.RIP.XVID-FANTA.avi_20150317_071339.949.jpg&lt;/a&gt; &lt;a href=&quot;\nhttp://extraimago.com/images/2015/03/17/Cinderella2015HDCAM.RIP.XVID-FANTA.avi_20150317_071401.196.jpg&quot; rel=&quot;nofollow&quot; target=&quot;_NEW&quot;&gt;\nhttp://extraimago.com/images/2015/03/17/Cinderella2015HDCAM.RIP.XVID-FANTA.avi_20150317_071401.196.jpg&lt;/a&gt; &lt;a href=&quot;\nhttp://extraimago.com/images/2015/03/17/Cinderella2015HDCAM.RIP.XVID-FANTA.avi_20150317_071410.071.jpg&quot; rel=&quot;nofollow&quot; target=&quot;_NEW&quot;&gt;\nhttp://extraimago.com/images/2015/03/17/Cinderella2015HDCAM.RIP.XVID-FANTA.avi_20150317_071410.071.jpg&lt;/a&gt; &lt;a href=&quot;\nhttp://extraimago.com/images/2015/03/17/Cinderella2015HDCAM.RIP.XVID-FANTA.avi_20150317_071438.933.jpg&quot; rel=&quot;nofollow&quot; target=&quot;_NEW&quot;&gt;\nhttp://extraimago.com/images/2015/03/17/Cinderella2015HDCAM.RIP.XVID-FANTA.avi_20150317_071438.933.jpg&lt;/a&gt; &lt;a href=&quot;\nhttp://extraimago.com/images/2015/03/17/Cinderella2015HDCAM.RIP.XVID-FANTA.avi_20150317_071445.578.jpg&quot; rel=&quot;nofollow&quot; target=&quot;_NEW&quot;&gt;\nhttp://extraimago.com/images/2015/03/17/Cinderella2015HDCAM.RIP.XVID-FANTA.avi_20150317_071445.578.jpg&lt;/a&gt; &lt;a href=&quot;\nhttp://extraimago.com/images/2015/03/17/Cinderella2015HDCAM.RIP.XVID-FANTA.avi_20150317_071455.391.jpg&quot; rel=&quot;nofollow&quot; target=&quot;_NEW&quot;&gt;\nhttp://extraimago.com/images/2015/03/17/Cinderella2015HDCAM.RIP.XVID-FANTA.avi_20150317_071455.391.jpg&lt;/a&gt;",
  "parsed": {
    "xt": "urn:btih:12d598aae862a2c80af36d2d6be57d581afe6cde",
    "dn": "Cinderella 2015 HDCAM.RIP.XVID-FANTA",
    "tr": [
      "udp://exodus.desync.com:6969",
      "udp://open.demonii.com:1337",
      "udp://tracker.coppersurfer.tk:6969",
      "udp://tracker.openbittorrent.com:80"
    ],
    "infoHash": "12d598aae862a2c80af36d2d6be57d581afe6cde",
    "infoHashBuffer": {
      "type": "Buffer",
      "data": [
        18,
        213,
        152,
        170,
        232,
        98,
        162,
        200,
        10,
        243,
        109,
        45,
        107,
        229,
        125,
        88,
        26,
        254,
        108,
        222
      ]
    },
    "name": "Cinderella 2015 HDCAM.RIP.XVID-FANTA",
    "announce": [
      "udp://exodus.desync.com:6969",
      "udp://open.demonii.com:1337",
      "udp://tracker.coppersurfer.tk:6969",
      "udp://tracker.openbittorrent.com:80"
    ],
    "urlList": []
  },
  "previous": 3,
  "peers": 9,
  "last_updated": "2016-12-26T16:50:42.556Z"
}